# xmcd
# Track frame offsets:
# 150
# 17545
# 32095
# 50777
# 66542
# 78155
# 92895
# 106602
# 121092
# 133155
# 154150
# 173282
# 186747
# 203580
#
# Disc length: 2923 seconds
# Revision: 0
# Processed by: cddbd v1.4PL0 Copyright (c) Steve Scherf et al.
# Submitted via: VisiTrax 2.9.5.180 - For more info visit www.synapsa.com
#
DISCID=b60b690e
DTITLE=Various Artist - Mr Music Country 2-03
DYEAR=2003
DGENRE=Country
TTITLE0=Richard Hailey - Call 911 Margarita
TTITLE1=Stan Martin - Honky Tonk Fever
TTITLE2=Di Anne Foxx - Bartender's Blues
TTITLE3=Tim Barrett - Day Of a Working Man
TTITLE4=Todd Herendeen - Midnight Highway
TTITLE5=Heidi Hauge - A Song I Can Sing
TTITLE6=Rice, Rice, Hollman and Pedersen - Two Of a Kind
TTITLE7=Tina Amelia - I Can Quit
TTITLE8=Louie Crapitto - Gone Again
TTITLE9=Chris Wall - The Jagged Edge
TTITLE10=Hank Cochran - Something Unseen
TTITLE11=Ted Roddy - Tall Dark Stranger
TTITLE12=Pauline Reese - Blink Of an Eye
TTITLE13=Jim Lauderdale - Sweet Rosie Jones
EXTD=
EXTT0=
EXTT1=
EXTT2=
EXTT3=
EXTT4=
EXTT5=
EXTT6=
EXTT7=
EXTT8=
EXTT9=
EXTT10=
EXTT11=
EXTT12=
EXTT13=
PLAYORDER=
